# xmcd
#
# Track frame offsets:
#	150
#	15775
#	35719
#	56482
#	71195
#	87019
#	100965
#	118743
#	136788
#	161323
#	176825
#	204600
#	230244
#	244177
#
# Disc length: 3452 seconds
#
# Revision: 0
# Processed by: cddbd v1.5.2PL0 Copyright (c) Steve Scherf et al.
# Submitted via: EZCDAudioConverter 2.1.7.1
#
DISCID=bd0d7a0e
DTITLE=V/A - Mashed
DYEAR=2007
DGENRE=
TTITLE0=Malcolm McLaren vs Franz Ferdinand - Franz Buffalo
TTITLE1=Madonna vs A Taste Of Honey - Boogie Oogie Music
TTITLE2=Everything But The Girl vs Spiller - Missing Groovejet
TTITLE3=Mousse T vs Dandy Warhols - Horny As A Dandy [Mousse T's Radio Mix]
TTITLE4=David Bowie vs Liberty X - David X
TTITLE5=Peggy Lee vs Iggy Pop - Passenger Fever
TTITLE6=Deep Dish vs Dire Straits - Flashing For Money [Sultan Radio Edit]
TTITLE7=Kylie Minogue vs New Order - Can't Get Blue Monday Out Of My Head
TTITLE8=No Doubt vs The Shapeshifters - Hella Lola
TTITLE9=Mylo vs Miami Sound Machine - Doctor Pressure
TTITLE10=Eric Prydz vs Pink Floyd - Proper Education
TTITLE11=Blondie vs The Doors - Rapture Riders [Single Edit]
TTITLE12=Duran Duran vs Kelis - Notorious Trick
TTITLE13=Elastica vs Moloko - Sing Back Connection
EXTD=
EXTT0=
EXTT1=
EXTT2=
EXTT3=
EXTT4=
EXTT5=
EXTT6=
EXTT7=
EXTT8=
EXTT9=
EXTT10=
EXTT11=
EXTT12=
EXTT13=
PLAYORDER=
